<svg xmlns="http://www.w3.org/2000/svg" viewBox="0 0 1200 797">
  <defs>
    <linearGradient id="a" x1="-6.1%" x2="88.3%" y1="91.9%" y2="-19.9%">
      <stop stop-color="#FFCB54" offset="0%"/>
      <stop stop-color="#FDEB9C" offset="100%"/>
    </linearGradient>
    <linearGradient id="b" x1="1.3%" x2="112.7%" y1="124.4%" y2="13.7%">
      <stop stop-color="#FFC028" offset="0%"/>
      <stop stop-color="#FCB12B" offset="100%"/>
    </linearGradient>
    <linearGradient id="c" x1="-24.7%" x2="89.5%" y1="115.4%" y2="-14.3%">
      <stop stop-color="#FDCB32" offset="0%"/>
      <stop stop-color="#FCA100" offset="100%"/>
    </linearGradient>
    <linearGradient id="d" x1="-14.7%" x2="102.3%" y1="136.3%" y2="-19.8%">
      <stop stop-color="#F90" offset="0%"/>
      <stop stop-color="#FF9F0B" offset="100%"/>
    </linearGradient>
    <linearGradient id="e" x1="-29.1%" x2="120.3%" y1="134.5%" y2="-40.6%">
      <stop stop-color="#F04100" offset="0%"/>
      <stop stop-color="#EF2800" offset="100%"/>
    </linearGradient>
    <linearGradient id="f" x1="15.9%" x2="108.1%" y1="118.9%" y2="9.6%">
      <stop stop-color="#FFF" offset="0%"/>
      <stop stop-color="#FFF" offset="100%"/>
    </linearGradient>
    <linearGradient id="g" x1="-3.2%" x2="106.8%" y1="117.2%" y2="-13%">
      <stop stop-color="#FFBC31" offset="0%"/>
      <stop stop-color="#FDA700" offset="100%"/>
    </linearGradient>
    <linearGradient id="h" x1="-5.6%" x2="101.7%" y1="112%" y2="-15.2%">
      <stop stop-color="#FA8800" offset="0%"/>
      <stop stop-color="#F77900" offset="100%"/>
    </linearGradient>
    <linearGradient id="i" x1="-1.7%" x2="94.7%" y1="127.9%" y2="-21.8%">
      <stop stop-color="#FF9500" offset="0%"/>
      <stop stop-color="#FD8808" offset="100%"/>
    </linearGradient>
    <linearGradient id="j" x1="19.6%" x2="111.1%" y1="125%" y2="16.6%">
      <stop stop-color="#FFD46D" offset="0%"/>
      <stop stop-color="#FFFDD8" offset="100%"/>
    </linearGradient>
    <linearGradient id="k" x1=".6%" x2="98.4%" y1="100.6%" y2="-15.3%">
      <stop stop-color="#FFB719" offset="0%"/>
      <stop stop-color="#FC9B00" offset="100%"/>
    </linearGradient>
    <linearGradient id="l" x1="-13.7%" x2="77.7%" y1="81.9%" y2="-26.4%">
      <stop stop-color="#FC7100" offset="0%"/>
      <stop stop-color="#FD9500" offset="100%"/>
    </linearGradient>
    <linearGradient id="m" x1="-.3%" x2="96.9%" y1="99.4%" y2="-15.8%">
      <stop stop-color="#D3A15B" offset="0%"/>
      <stop stop-color="#F7CB95" offset="100%"/>
    </linearGradient>
    <linearGradient id="n" x1="-84.5%" x2="185.3%" y1="414.9%" y2="-316.2%">
      <stop stop-color="#F44600" offset="0%"/>
      <stop stop-color="#F74C00" offset="100%"/>
    </linearGradient>
    <linearGradient id="o" x1="-16.5%" x2="117.5%" y1="180.2%" y2="18.3%">
      <stop stop-color="#FD9500" offset="0%"/>
      <stop stop-color="#FC7E00" offset="100%"/>
    </linearGradient>
    <linearGradient id="p" x1="11.9%" x2="104.9%" y1="133.7%" y2="6.7%">
      <stop stop-color="#FC6D00" offset="0%"/>
      <stop stop-color="#FD7E00" offset="100%"/>
    </linearGradient>
    <linearGradient id="q" x1="-11.4%" x2="82.1%" y1="86.5%" y2="-24.3%">
      <stop stop-color="#FFFFFC" offset="0%"/>
      <stop stop-color="#FFF8D3" offset="100%"/>
    </linearGradient>
    <linearGradient id="r" x1="-94.3%" x2="102.9%" y1="908.3%" y2="-196.4%">
      <stop stop-color="#EB0800" offset="0%"/>
      <stop stop-color="#F23B00" offset="100%"/>
    </linearGradient>
    <linearGradient id="s" x1="11.6%" x2="100.9%" y1="115.3%" y2="9.5%">
      <stop stop-color="#FC9700" offset="0%"/>
      <stop stop-color="#F88800" offset="100%"/>
    </linearGradient>
    <linearGradient id="t" x1="1.4%" x2="91.4%" y1="92.7%" y2="-13.9%">
      <stop stop-color="#FFAF00" offset="0%"/>
      <stop stop-color="#FFCC4E" offset="100%"/>
    </linearGradient>
    <linearGradient id="u" x1="-20.4%" x2="90.5%" y1="95.1%" y2="-22.9%">
      <stop stop-color="#F46500" offset="0%"/>
      <stop stop-color="#FC8C00" offset="100%"/>
    </linearGradient>
    <linearGradient id="v" x1=".9%" x2="99%" y1="115.1%" y2="-1.2%">
      <stop stop-color="#FFE088" offset="0%"/>
      <stop stop-color="#FFDB7E" offset="100%"/>
    </linearGradient>
    <linearGradient id="w" x1="-3.3%" x2="92.2%" y1="96.1%" y2="-17.1%">
      <stop stop-color="#FFE8A6" offset="0%"/>
      <stop stop-color="#FFBE37" offset="100%"/>
    </linearGradient>
    <linearGradient id="x" x1="-19.1%" x2="109.9%" y1="122.3%" y2="-20.4%">
      <stop stop-color="#FDA100" offset="0%"/>
      <stop stop-color="#FC9100" offset="100%"/>
    </linearGradient>
    <linearGradient id="y" x1="3.1%" x2="92.6%" y1="93.7%" y2="-12.4%">
      <stop stop-color="#F7845A" offset="0%"/>
      <stop stop-color="#F27B46" offset="100%"/>
    </linearGradient>
    <linearGradient id="z" x1="-79.9%" x2="99.7%" y1="351.9%" y2="-11.3%">
      <stop stop-color="#EB3704" offset="0%"/>
      <stop stop-color="#F03B41" offset="100%"/>
    </linearGradient>
    <linearGradient id="A" x1="7.6%" x2="96.9%" y1="109%" y2="3.1%">
      <stop stop-color="#FA7516" offset="0%"/>
      <stop stop-color="#F48240" offset="100%"/>
    </linearGradient>
    <linearGradient id="B" x1="-49%" x2="150.3%" y1="169.8%" y2="-66.3%">
      <stop stop-color="#FDC788" offset="0%"/>
      <stop stop-color="#F8E8CC" offset="100%"/>
    </linearGradient>
    <linearGradient id="C" x1="-.4%" x2="89.9%" y1="91.5%" y2="-15.5%">
      <stop stop-color="#FFF" offset="0%"/>
      <stop stop-color="#FDF8F0" offset="100%"/>
    </linearGradient>
    <linearGradient id="D" x1="5.3%" x2="99.5%" y1="106.8%" y2="-4.7%">
      <stop stop-color="#D69B46" offset="0%"/>
      <stop stop-color="#FFC968" offset="100%"/>
    </linearGradient>
    <linearGradient id="E" x1="-.4%" x2="94.9%" y1="106.9%" y2="-6.1%">
      <stop stop-color="#FFBE37" offset="0%"/>
      <stop stop-color="#FFC435" offset="100%"/>
    </linearGradient>
    <linearGradient id="F" x1="10%" x2="97.4%" y1="111.8%" y2="8.2%">
      <stop stop-color="#FFBA15" offset="0%"/>
      <stop stop-color="#FFE089" offset="100%"/>
    </linearGradient>
    <linearGradient id="G" x1="12.5%" x2="103.3%" y1="114.8%" y2="7.1%">
      <stop stop-color="#FFF7DE" offset="0%"/>
      <stop stop-color="#FFF8D4" offset="100%"/>
    </linearGradient>
    <linearGradient id="H" x1="12.3%" x2="106.6%" y1="120.3%" y2="8.5%">
      <stop stop-color="#FFEBB4" offset="0%"/>
      <stop stop-color="#FFF2CB" offset="100%"/>
    </linearGradient>
    <linearGradient id="I" x1="-8.8%" x2="84%" y1="89.5%" y2="-20.4%">
      <stop stop-color="#FFFFFD" offset="0%"/>
      <stop stop-color="#FFFADD" offset="100%"/>
    </linearGradient>
    <linearGradient id="J" x1="-8.3%" x2="81.8%" y1="85.2%" y2="-21.5%">
      <stop stop-color="#FFF" offset="0%"/>
      <stop stop-color="#FFFADB" offset="100%"/>
    </linearGradient>
    <linearGradient id="K" x1="-3.9%" x2="90.6%" y1="95.4%" y2="-16.4%">
      <stop stop-color="#F87500" offset="0%"/>
      <stop stop-color="#ED2F00" offset="100%"/>
    </linearGradient>
    <linearGradient id="L" x1="-38.3%" x2="90.1%" y1="98.5%" y2="-8.2%">
      <stop stop-color="#E50000" offset="0%"/>
      <stop stop-color="#E80B00" offset="100%"/>
    </linearGradient>
    <linearGradient id="M" x1="-219.3%" x2="143.9%" y1="321.1%" y2="-79.7%">
      <stop stop-color="#E00000" offset="0%"/>
      <stop stop-color="#E30000" offset="100%"/>
    </linearGradient>
    <linearGradient id="N" x1="-26.8%" x2="100.3%" y1="182.9%" y2="-24.4%">
      <stop stop-color="#DE0000" offset="0%"/>
      <stop stop-color="#E30000" offset="100%"/>
    </linearGradient>
    <linearGradient id="O" x1="-7.7%" x2="84.9%" y1="88%" y2="-21.7%">
      <stop stop-color="#FAC07C" offset="0%"/>
      <stop stop-color="#FFDEBA" offset="100%"/>
    </linearGradient>
    <linearGradient id="P" x1="5%" x2="99.3%" y1="115%" y2="3.2%">
      <stop stop-color="#EDAC60" offset="0%"/>
      <stop stop-color="#EADDCB" offset="100%"/>
    </linearGradient>
    <linearGradient id="Q" x1="-4%" x2="88.2%" y1="95.3%" y2="-14%">
      <stop stop-color="#DDD3C6" offset="0%"/>
      <stop stop-color="#F8F2EA" offset="100%"/>
    </linearGradient>
    <linearGradient id="R" x1="3.2%" x2="98.7%" y1="99.9%" y2="-13.3%">
      <stop stop-color="#FFF" offset="0%"/>
      <stop stop-color="#FFF" offset="100%"/>
    </linearGradient>
    <linearGradient id="S" x1="-5%" x2="84.7%" y1="87.5%" y2="-18.8%">
      <stop stop-color="#D69943" offset="0%"/>
      <stop stop-color="#FFB94C" offset="100%"/>
    </linearGradient>
    <linearGradient id="T" x1="-7.6%" x2="90.2%" y1="111.3%" y2="-16.3%">
      <stop stop-color="#FC7900" offset="0%"/>
      <stop stop-color="#FFAF37" offset="100%"/>
    </linearGradient>
    <linearGradient id="U" x1="-3.1%" x2="104%" y1="140.1%" y2="7.5%">
      <stop stop-color="#FA6D00" offset="0%"/>
      <stop stop-color="#FFA115" offset="100%"/>
    </linearGradient>
    <linearGradient id="V" x1="4%" x2="92.2%" y1="93.4%" y2="-11.1%">
      <stop stop-color="#FFD" offset="0%"/>
      <stop stop-color="#FFFFE5" offset="100%"/>
    </linearGradient>
    <linearGradient id="W" x1="13.8%" x2="104%" y1="118.3%" y2="11.4%">
      <stop stop-color="#FFF" offset="0%"/>
      <stop stop-color="#FFFFF2" offset="100%"/>
    </linearGradient>
    <linearGradient id="X" x1="-3.2%" x2="86.5%" y1="88.9%" y2="-17.4%">
      <stop stop-color="#FFF" offset="0%"/>
      <stop stop-color="#FFF" offset="100%"/>
    </linearGradient>
    <linearGradient id="Y" x1="-7.8%" x2="84.4%" y1="90.8%" y2="-18.5%">
      <stop stop-color="#FFFFEA" offset="0%"/>
      <stop stop-color="#FFFFF4" offset="100%"/>
    </linearGradient>
    <linearGradient id="Z" x1=".7%" x2="94.3%" y1="96%" y2="-14.9%">
      <stop stop-color="#FFFFF0" offset="0%"/>
      <stop stop-color="#FFFFEB" offset="100%"/>
    </linearGradient>
    <linearGradient id="aa" x1="14.6%" x2="108.8%" y1="122%" y2="10.4%">
      <stop stop-color="#FFB341" offset="0%"/>
      <stop stop-color="#E39728" offset="100%"/>
    </linearGradient>
    <linearGradient id="ab" x1="-9.9%" x2="82.3%" y1="88.3%" y2="-20.9%">
      <stop stop-color="#C78835" offset="0%"/>
      <stop stop-color="#F0A13B" offset="100%"/>
    </linearGradient>
    <linearGradient id="ac" x1="1.5%" x2="95.5%" y1="106.1%" y2="-5.3%">
      <stop stop-color="#FD8116" offset="0%"/>
      <stop stop-color="#FAA12F" offset="100%"/>
    </linearGradient>
    <linearGradient id="ad" x1="10.9%" x2="102.6%" y1="117.8%" y2="9.2%">
      <stop stop-color="#FC820F" offset="0%"/>
      <stop stop-color="#FFA216" offset="100%"/>
    </linearGradient>
    <linearGradient id="ae" x1="2%" x2="94.9%" y1="104.1%" y2="-6%">
      <stop stop-color="#FFA10E" offset="0%"/>
      <stop stop-color="#FFA10F" offset="100%"/>
    </linearGradient>
    <linearGradient id="af" x1="-4.2%" x2="88.9%" y1="91.5%" y2="-18.8%">
      <stop stop-color="#FF9C08" offset="0%"/>
      <stop stop-color="#FFA622" offset="100%"/>
    </linearGradient>
    <linearGradient id="ag" x1="13.6%" x2="106.9%" y1="118.8%" y2="8.2%">
      <stop stop-color="#E80800" offset="0%"/>
      <stop stop-color="#F25400" offset="100%"/>
    </linearGradient>
    <linearGradient id="ah" x1="16.2%" x2="107.7%" y1="119.2%" y2="10.8%">
      <stop stop-color="#F87C00" offset="0%"/>
      <stop stop-color="#F76B00" offset="100%"/>
    </linearGradient>
    <linearGradient id="ai" x1="-7.3%" x2="84%" y1="92.7%" y2="-23.2%">
      <stop stop-color="#E60000" offset="0%"/>
      <stop stop-color="#E80B00" offset="100%"/>
    </linearGradient>
    <linearGradient id="aj" x1="6.9%" x2="101.6%" y1="126.6%" y2="8.4%">
      <stop stop-color="#E80B00" offset="0%"/>
      <stop stop-color="#F04300" offset="100%"/>
    </linearGradient>
    <linearGradient id="ak" x1="12.8%" x2="105.7%" y1="120.1%" y2="9.9%">
      <stop stop-color="#F75500" offset="0%"/>
      <stop stop-color="#F45A00" offset="100%"/>
    </linearGradient>
    <linearGradient id="al" x1="-11%" x2="81.2%" y1="284.6%" y2="-72.7%">
      <stop stop-color="#ED3200" offset="0%"/>
      <stop stop-color="#F75516" offset="100%"/>
    </linearGradient>
  </defs>
  <g fill="none" fill-rule="evenodd">
    <path fill="url(#a)" fill-rule="nonzero" d="M86.2 503L73.4 375.5l93.2 65"/>
    <path fill="#FEB012" fill-rule="nonzero" d="M578.2 797L549 739l48.3-51.6"/>
    <path fill="#F9BA65" fill-rule="nonzero" d="M578.2 797L697 701l-99.7-13.6"/>
    <path fill="url(#b)" fill-rule="nonzero" d="M0 464.3L86.2 503 73.4 375.5 0 441.8"/>
    <path fill="url(#c)" fill-rule="nonzero" d="M0 441.8l73.4-66.3-48.3-19L0 417"/>
    <path fill="#FFCC67" fill-rule="nonzero" d="M0 417l25-60.5L9 180.2l-9 97.5"/>
    <path fill="#FEBB77" fill-rule="nonzero" d="M761.2 768.8l60 28.2 176.4-16-97.5-9"/>
    <path fill="url(#d)" fill-rule="nonzero" d="M382.3 797h1.3l-5-22.8-6.3-2.7"/>
    <path fill="url(#e)" fill-rule="nonzero" d="M0 640.5l31.6-21L0 513.2"/>
    <path fill="url(#f)" fill-rule="nonzero" d="M320.8 541h-22.5l35.4-59.7"/>
    <path fill="url(#g)" fill-rule="nonzero" d="M301.6 714.5l-135-43.3 9.6-19"/>
    <path fill="url(#h)" fill-rule="nonzero" d="M166.6 671.2l-135-51.6 144.6 32.6"/>
    <path fill="url(#i)" fill-rule="nonzero" d="M383.6 797H424l6-1-51.3-21.8"/>
    <path fill="#FFEEC0" fill-rule="nonzero" d="M0 277.7l9-97.5-9-108"/>
    <path fill="#FFFCE8" fill-rule="nonzero" d="M0 72l9 108.2 6.5-78.6L0 0"/>
    <path fill="#FDA90D" fill-rule="nonzero" d="M549 739l48.3-51.6-128.6 8.2"/>
    <path fill="url(#j)" fill-rule="nonzero" d="M86.2 503l80.4-62.4 41.7 78.7"/>
    <path fill="url(#k)" fill-rule="nonzero" d="M301.6 714.5l-135-43.3 6.4 51.5"/>
    <path fill="url(#l)" fill-rule="nonzero" d="M195.5 790.5l106-76-128.5 8.2"/>
    <path fill="#FFD590" fill-rule="nonzero" d="M25 356.5L9 180.2l29 51.6"/>
    <path fill="url(#m)" fill-rule="nonzero" d="M398 717.3l70.7-21.7-74-84"/>
    <path fill="url(#n)" fill-rule="nonzero" d="M206 797h17l-27.5-6.5"/>
    <path fill="url(#o)" fill-rule="nonzero" d="M307.5 797h74.8l-10-25.5"/>
    <path fill="url(#p)" fill-rule="nonzero" d="M279.2 797l22.4-82.5-106 76L223 797"/>
    <path fill="url(#q)" fill-rule="nonzero" d="M298.3 541l-90-21.7V598"/>
    <path fill="url(#r)" fill-rule="nonzero" d="M118.4 797h80.8l-3.7-6.5"/>
    <path fill="#E3B374" fill-rule="nonzero" d="M468.7 695.6l128.6-8.2-45-62.4"/>
    <path fill="url(#s)" fill-rule="nonzero" d="M176.2 652.2L31.6 619.6 79.8 530"/>
    <path fill="url(#t)" fill-rule="nonzero" d="M176.2 652.2l32-54.3L80 530"/>
    <path fill="url(#u)" fill-rule="nonzero" d="M0 513l31.6 106.6L79.8 530 0 469.6"/>
    <path fill="url(#v)" fill-rule="nonzero" d="M208.3 598v-78.7L79.8 530"/>
    <path fill="url(#w)" fill-rule="nonzero" d="M208.3 519.3L86.3 503l-6.5 27"/>
    <path fill="url(#x)" fill-rule="nonzero" d="M0 469.5L79.8 530l6.4-27L0 464.3"/>
    <path fill="url(#y)" fill-rule="nonzero" d="M549 739l-80.3-43.4 64.3 73.2"/>
    <path fill="url(#z)" fill-rule="nonzero" d="M502.5 797h75.7L533 768.8"/>
    <path fill="url(#A)" fill-rule="nonzero" d="M430 796l38.7-100.4 64.3 73.2"/>
    <path fill="#FD7900" fill-rule="nonzero" d="M578.2 797L549 739l-16 29.8"/>
    <path fill="url(#B)" fill-rule="nonzero" d="M468.7 695.6l-74-84 3.3-5.5"/>
    <path fill="#FFF" fill-rule="nonzero" d="M394.8 611.5L369 557.2l29 49"/>
    <path fill="url(#C)" fill-rule="nonzero" d="M410.8 581.7L369 557.2l29 49"/>
    <path fill="url(#D)" fill-rule="nonzero" d="M398 717.3l-96.4-2.8 6.4-62.3"/>
    <path fill="#E7A65E" fill-rule="nonzero" d="M398 717.3l-3.2-105.8-86.8 40.7"/>
    <path fill="url(#E)" fill-rule="nonzero" d="M301.6 714.5l-125.4-62.3H308"/>
    <path fill="url(#F)" fill-rule="nonzero" d="M176.2 652.2l32-54.3 99.8 54"/>
    <path fill="url(#G)" fill-rule="nonzero" d="M394.8 611.5L369 557.2l-61 95"/>
    <path fill="url(#H)" fill-rule="nonzero" d="M208.3 598l90-57 9.7 111.2"/>
    <path fill="url(#I)" fill-rule="nonzero" d="M369 557.2L321 541l-13 111.2"/>
    <path fill="url(#J)" fill-rule="nonzero" d="M320.8 541h-22.5l9.7 111.2"/>
    <path fill="#FECB77" fill-rule="nonzero" d="M578.2 797L697 701l64.2 67.8"/>
    <path fill="url(#K)" fill-rule="nonzero" d="M166.6 671.2l-135-51.6L5.8 736.3"/>
    <path fill="url(#L)" fill-rule="nonzero" d="M0 710l5.8 26.3 25.8-116.7-31.6 21"/>
    <path fill="url(#M)" fill-rule="nonzero" d="M0 765.2l5.8-29L0 710"/>
    <path fill="url(#N)" fill-rule="nonzero" d="M0 797h62.8l-57-60.7-5.8 29"/>
    <path fill="url(#O)" fill-rule="nonzero" d="M468.7 695.6l83.6-70.6L427 579"/>
    <path fill="url(#P)" fill-rule="nonzero" d="M468.7 695.6L398 606l29-27"/>
    <path fill="url(#Q)" fill-rule="nonzero" d="M398 606l12.8-24.3 16-2.8"/>
    <path fill="url(#R)" fill-rule="nonzero" d="M410.8 581.7L369 557.2l58 21.7"/>
    <path fill="url(#S)" fill-rule="nonzero" d="M398 717.3l-96.4-2.8 51.4 27.2"/>
    <path fill="url(#T)" fill-rule="nonzero" d="M279.2 797H290l63-55.3-51.4-27.2"/>
    <path fill="url(#U)" fill-rule="nonzero" d="M290 797h17.5l64.8-25.5-19.3-29.8"/>
    <path fill="#FFA934" fill-rule="nonzero" d="M763.8 797l-2.6-28.2-183 28.2"/>
    <path fill="url(#V)" fill-rule="nonzero" d="M208.3 519.3l-41.7-78.7 51.4 32.6"/>
    <path fill="url(#W)" fill-rule="nonzero" d="M298.3 541l-90-21.7L247 465"/>
    <path fill="url(#X)" fill-rule="nonzero" d="M298.3 541l35.4-59.7L247 465"/>
    <path fill="url(#Y)" fill-rule="nonzero" d="M208.3 519.3l9.7-46 29-8.3"/>
    <path fill="url(#Z)" fill-rule="nonzero" d="M218 473.2l-51.4-32.6L247 465"/>
    <path fill="url(#aa)" fill-rule="nonzero" d="M353 741.7l45-24.4V758"/>
    <path fill="url(#ab)" fill-rule="nonzero" d="M398 717.3l70.7-21.7L398 758"/>
    <path fill="url(#ac)" fill-rule="nonzero" d="M430 796l38.7-100.4L398 758"/>
    <path fill="url(#ad)" fill-rule="nonzero" d="M430 796l-51.2-22 19.2-16"/>
    <path fill="url(#ae)" fill-rule="nonzero" d="M378.7 774.2l-6.4-2.7L398 758"/>
    <path fill="url(#af)" fill-rule="nonzero" d="M372.3 771.5L353 741.7l45 16.2"/>
    <path fill="url(#ag)" fill-rule="nonzero" d="M5.8 736.3l160.8-65-32.2 86.6"/>
    <path fill="url(#ah)" fill-rule="nonzero" d="M173 722.7l-6.4-51.5-32.2 86.7"/>
    <path fill="url(#ai)" fill-rule="nonzero" d="M62.8 797h11l60.6-39L5.8 736.2"/>
    <path fill="url(#aj)" fill-rule="nonzero" d="M73.7 797h44.7l77-6.5-61-32.6"/>
    <path fill="url(#ak)" fill-rule="nonzero" d="M195.5 790.5L173 722.7 134.4 758"/>
    <path fill="#FDD09D" d="M897.3 772l-136-3.2L697 701"/>
    <path fill="#FAA000" d="M761.2 768.8l2.6 28 57.6.2"/>
    <path fill="#FFD087" d="M821.4 796.8L997.7 781l202.3 16"/>
    <path fill="url(#al)" fill-rule="nonzero" d="M502.5 797l30.5-28.2L424 797"/>
  </g>
</svg>
