<svg xmlns="http://www.w3.org/2000/svg" width="1200" height="797" version="1">
  <defs>
    <linearGradient id="a" x1="-6%" x2="88%" y1="92%" y2="-20%">
      <stop offset="0%" stop-color="#FFCB54"/>
      <stop offset="100%" stop-color="#FDEB9C"/>
    </linearGradient>
    <linearGradient id="b" x1="1%" x2="113%" y1="124%" y2="14%">
      <stop offset="0%" stop-color="#FFC028"/>
      <stop offset="100%" stop-color="#FCB12B"/>
    </linearGradient>
    <linearGradient id="c" x1="-25%" x2="90%" y1="115%" y2="-14%">
      <stop offset="0%" stop-color="#FDCB32"/>
      <stop offset="100%" stop-color="#FCA100"/>
    </linearGradient>
    <linearGradient id="d" x1="-15%" x2="102%" y1="136%" y2="-20%">
      <stop offset="0%" stop-color="#F90"/>
      <stop offset="100%" stop-color="#FF9F0B"/>
    </linearGradient>
    <linearGradient id="e" x1="-29%" x2="120%" y1="135%" y2="-41%">
      <stop offset="0%" stop-color="#F04100"/>
      <stop offset="100%" stop-color="#EF2800"/>
    </linearGradient>
    <linearGradient id="f" x1="16%" x2="108%" y1="119%" y2="10%">
      <stop offset="0%" stop-color="#FFF"/>
      <stop offset="100%" stop-color="#FFF"/>
    </linearGradient>
    <linearGradient id="g" x1="-3%" x2="107%" y1="117%" y2="-13%">
      <stop offset="0%" stop-color="#FFBC31"/>
      <stop offset="100%" stop-color="#FDA700"/>
    </linearGradient>
    <linearGradient id="h" x1="-6%" x2="102%" y1="112%" y2="-15%">
      <stop offset="0%" stop-color="#FA8800"/>
      <stop offset="100%" stop-color="#F77900"/>
    </linearGradient>
    <linearGradient id="i" x1="-2%" x2="95%" y1="128%" y2="-22%">
      <stop offset="0%" stop-color="#FF9500"/>
      <stop offset="100%" stop-color="#FD8808"/>
    </linearGradient>
    <linearGradient id="j" x1="20%" x2="111%" y1="125%" y2="17%">
      <stop offset="0%" stop-color="#FFD46D"/>
      <stop offset="100%" stop-color="#FFFDD8"/>
    </linearGradient>
    <linearGradient id="k" x1="1%" x2="98%" y1="101%" y2="-15%">
      <stop offset="0%" stop-color="#FFB719"/>
      <stop offset="100%" stop-color="#FC9B00"/>
    </linearGradient>
    <linearGradient id="l" x1="-14%" x2="78%" y1="82%" y2="-26%">
      <stop offset="0%" stop-color="#FC7100"/>
      <stop offset="100%" stop-color="#FD9500"/>
    </linearGradient>
    <linearGradient id="m" x1="0%" x2="97%" y1="99%" y2="-16%">
      <stop offset="0%" stop-color="#D3A15B"/>
      <stop offset="100%" stop-color="#F7CB95"/>
    </linearGradient>
    <linearGradient id="n" x1="-85%" x2="185%" y1="415%" y2="-316%">
      <stop offset="0%" stop-color="#F44600"/>
      <stop offset="100%" stop-color="#F74C00"/>
    </linearGradient>
    <linearGradient id="o" x1="-17%" x2="118%" y1="180%" y2="18%">
      <stop offset="0%" stop-color="#FD9500"/>
      <stop offset="100%" stop-color="#FC7E00"/>
    </linearGradient>
    <linearGradient id="p" x1="12%" x2="105%" y1="134%" y2="7%">
      <stop offset="0%" stop-color="#FC6D00"/>
      <stop offset="100%" stop-color="#FD7E00"/>
    </linearGradient>
    <linearGradient id="q" x1="-11%" x2="82%" y1="87%" y2="-24%">
      <stop offset="0%" stop-color="#FFFFFC"/>
      <stop offset="100%" stop-color="#FFF8D3"/>
    </linearGradient>
    <linearGradient id="r" x1="-94%" x2="103%" y1="908%" y2="-196%">
      <stop offset="0%" stop-color="#EB0800"/>
      <stop offset="100%" stop-color="#F23B00"/>
    </linearGradient>
    <linearGradient id="s" x1="12%" x2="101%" y1="115%" y2="10%">
      <stop offset="0%" stop-color="#FC9700"/>
      <stop offset="100%" stop-color="#F88800"/>
    </linearGradient>
    <linearGradient id="t" x1="1%" x2="91%" y1="93%" y2="-14%">
      <stop offset="0%" stop-color="#FFAF00"/>
      <stop offset="100%" stop-color="#FFCC4E"/>
    </linearGradient>
    <linearGradient id="u" x1="-20%" x2="91%" y1="95%" y2="-23%">
      <stop offset="0%" stop-color="#F46500"/>
      <stop offset="100%" stop-color="#FC8C00"/>
    </linearGradient>
    <linearGradient id="v" x1="1%" x2="99%" y1="115%" y2="-1%">
      <stop offset="0%" stop-color="#FFE088"/>
      <stop offset="100%" stop-color="#FFDB7E"/>
    </linearGradient>
    <linearGradient id="w" x1="-3%" x2="92%" y1="96%" y2="-17%">
      <stop offset="0%" stop-color="#FFE8A6"/>
      <stop offset="100%" stop-color="#FFBE37"/>
    </linearGradient>
    <linearGradient id="x" x1="-19%" x2="110%" y1="122%" y2="-20%">
      <stop offset="0%" stop-color="#FDA100"/>
      <stop offset="100%" stop-color="#FC9100"/>
    </linearGradient>
    <linearGradient id="y" x1="3%" x2="93%" y1="94%" y2="-12%">
      <stop offset="0%" stop-color="#F7845A"/>
      <stop offset="100%" stop-color="#F27B46"/>
    </linearGradient>
    <linearGradient id="z" x1="-80%" y1="352%" y2="-11%">
      <stop offset="0%" stop-color="#EB3704"/>
      <stop offset="100%" stop-color="#F03B41"/>
    </linearGradient>
    <linearGradient id="A" x1="8%" x2="97%" y1="109%" y2="3%">
      <stop offset="0%" stop-color="#FA7516"/>
      <stop offset="100%" stop-color="#F48240"/>
    </linearGradient>
    <linearGradient id="B" x1="-49%" x2="150%" y1="170%" y2="-66%">
      <stop offset="0%" stop-color="#FDC788"/>
      <stop offset="100%" stop-color="#F8E8CC"/>
    </linearGradient>
    <linearGradient id="C" x1="0%" x2="90%" y1="92%" y2="-16%">
      <stop offset="0%" stop-color="#FFF"/>
      <stop offset="100%" stop-color="#FDF8F0"/>
    </linearGradient>
    <linearGradient id="D" x1="5%" y1="107%" y2="-5%">
      <stop offset="0%" stop-color="#D69B46"/>
      <stop offset="100%" stop-color="#FFC968"/>
    </linearGradient>
    <linearGradient id="E" x1="0%" x2="95%" y1="107%" y2="-6%">
      <stop offset="0%" stop-color="#FFBE37"/>
      <stop offset="100%" stop-color="#FFC435"/>
    </linearGradient>
    <linearGradient id="F" x1="10%" x2="97%" y1="112%" y2="8%">
      <stop offset="0%" stop-color="#FFBA15"/>
      <stop offset="100%" stop-color="#FFE089"/>
    </linearGradient>
    <linearGradient id="G" x1="13%" x2="103%" y1="115%" y2="7%">
      <stop offset="0%" stop-color="#FFF7DE"/>
      <stop offset="100%" stop-color="#FFF8D4"/>
    </linearGradient>
    <linearGradient id="H" x1="12%" x2="107%" y1="120%" y2="9%">
      <stop offset="0%" stop-color="#FFEBB4"/>
      <stop offset="100%" stop-color="#FFF2CB"/>
    </linearGradient>
    <linearGradient id="I" x1="-9%" x2="84%" y1="90%" y2="-20%">
      <stop offset="0%" stop-color="#FFFFFD"/>
      <stop offset="100%" stop-color="#FFFADD"/>
    </linearGradient>
    <linearGradient id="J" x1="-8%" x2="82%" y1="85%" y2="-22%">
      <stop offset="0%" stop-color="#FFF"/>
      <stop offset="100%" stop-color="#FFFADB"/>
    </linearGradient>
    <linearGradient id="K" x1="-4%" x2="91%" y1="95%" y2="-16%">
      <stop offset="0%" stop-color="#F87500"/>
      <stop offset="100%" stop-color="#ED2F00"/>
    </linearGradient>
    <linearGradient id="L" x1="-38%" x2="90%" y1="99%" y2="-8%">
      <stop offset="0%" stop-color="#E50000"/>
      <stop offset="100%" stop-color="#E80B00"/>
    </linearGradient>
    <linearGradient id="M" x1="-219%" x2="144%" y1="321%" y2="-80%">
      <stop offset="0%" stop-color="#E00000"/>
      <stop offset="100%" stop-color="#E30000"/>
    </linearGradient>
    <linearGradient id="N" x1="-27%" y1="183%" y2="-24%">
      <stop offset="0%" stop-color="#DE0000"/>
      <stop offset="100%" stop-color="#E30000"/>
    </linearGradient>
    <linearGradient id="O" x1="-8%" x2="85%" y1="88%" y2="-22%">
      <stop offset="0%" stop-color="#FAC07C"/>
      <stop offset="100%" stop-color="#FFDEBA"/>
    </linearGradient>
    <linearGradient id="P" x1="5%" x2="99%" y1="115%" y2="3%">
      <stop offset="0%" stop-color="#EDAC60"/>
      <stop offset="100%" stop-color="#EADDCB"/>
    </linearGradient>
    <linearGradient id="Q" x1="-4%" x2="88%" y1="95%" y2="-14%">
      <stop offset="0%" stop-color="#DDD3C6"/>
      <stop offset="100%" stop-color="#F8F2EA"/>
    </linearGradient>
    <linearGradient id="R" x1="3%" x2="99%" y1="100%" y2="-13%">
      <stop offset="0%" stop-color="#FFF"/>
      <stop offset="100%" stop-color="#FFF"/>
    </linearGradient>
    <linearGradient id="S" x1="-5%" x2="85%" y1="88%" y2="-19%">
      <stop offset="0%" stop-color="#D69943"/>
      <stop offset="100%" stop-color="#FFB94C"/>
    </linearGradient>
    <linearGradient id="T" x1="-8%" x2="90%" y1="111%" y2="-16%">
      <stop offset="0%" stop-color="#FC7900"/>
      <stop offset="100%" stop-color="#FFAF37"/>
    </linearGradient>
    <linearGradient id="U" x1="-3%" x2="104%" y1="140%" y2="8%">
      <stop offset="0%" stop-color="#FA6D00"/>
      <stop offset="100%" stop-color="#FFA115"/>
    </linearGradient>
    <linearGradient id="V" x1="4%" x2="92%" y1="93%" y2="-11%">
      <stop offset="0%" stop-color="#FFD"/>
      <stop offset="100%" stop-color="#FFFFE5"/>
    </linearGradient>
    <linearGradient id="W" x1="14%" x2="104%" y1="118%" y2="11%">
      <stop offset="0%" stop-color="#FFF"/>
      <stop offset="100%" stop-color="#FFFFF2"/>
    </linearGradient>
    <linearGradient id="X" x1="-3%" x2="87%" y1="89%" y2="-17%">
      <stop offset="0%" stop-color="#FFF"/>
      <stop offset="100%" stop-color="#FFF"/>
    </linearGradient>
    <linearGradient id="Y" x1="-8%" x2="84%" y1="91%" y2="-19%">
      <stop offset="0%" stop-color="#FFFFEA"/>
      <stop offset="100%" stop-color="#FFFFF4"/>
    </linearGradient>
    <linearGradient id="Z" x1="1%" x2="94%" y1="96%" y2="-15%">
      <stop offset="0%" stop-color="ivory"/>
      <stop offset="100%" stop-color="#FFFFEB"/>
    </linearGradient>
    <linearGradient id="aa" x1="15%" x2="109%" y1="122%" y2="10%">
      <stop offset="0%" stop-color="#FFB341"/>
      <stop offset="100%" stop-color="#E39728"/>
    </linearGradient>
    <linearGradient id="ab" x1="-10%" x2="82%" y1="88%" y2="-21%">
      <stop offset="0%" stop-color="#C78835"/>
      <stop offset="100%" stop-color="#F0A13B"/>
    </linearGradient>
    <linearGradient id="ac" x1="2%" x2="96%" y1="106%" y2="-5%">
      <stop offset="0%" stop-color="#FD8116"/>
      <stop offset="100%" stop-color="#FAA12F"/>
    </linearGradient>
    <linearGradient id="ad" x1="11%" x2="103%" y1="118%" y2="9%">
      <stop offset="0%" stop-color="#FC820F"/>
      <stop offset="100%" stop-color="#FFA216"/>
    </linearGradient>
    <linearGradient id="ae" x1="2%" x2="95%" y1="104%" y2="-6%">
      <stop offset="0%" stop-color="#FFA10E"/>
      <stop offset="100%" stop-color="#FFA10F"/>
    </linearGradient>
    <linearGradient id="af" x1="-4%" x2="89%" y1="92%" y2="-19%">
      <stop offset="0%" stop-color="#FF9C08"/>
      <stop offset="100%" stop-color="#FFA622"/>
    </linearGradient>
    <linearGradient id="ag" x1="14%" x2="107%" y1="119%" y2="8%">
      <stop offset="0%" stop-color="#E80800"/>
      <stop offset="100%" stop-color="#F25400"/>
    </linearGradient>
    <linearGradient id="ah" x1="16%" x2="108%" y1="119%" y2="11%">
      <stop offset="0%" stop-color="#F87C00"/>
      <stop offset="100%" stop-color="#F76B00"/>
    </linearGradient>
    <linearGradient id="ai" x1="-7%" x2="84%" y1="93%" y2="-23%">
      <stop offset="0%" stop-color="#E60000"/>
      <stop offset="100%" stop-color="#E80B00"/>
    </linearGradient>
    <linearGradient id="aj" x1="7%" x2="102%" y1="127%" y2="8%">
      <stop offset="0%" stop-color="#E80B00"/>
      <stop offset="100%" stop-color="#F04300"/>
    </linearGradient>
    <linearGradient id="ak" x1="13%" x2="106%" y1="120%" y2="10%">
      <stop offset="0%" stop-color="#F75500"/>
      <stop offset="100%" stop-color="#F45A00"/>
    </linearGradient>
    <linearGradient id="al" x1="-11%" x2="81%" y1="285%" y2="-73%">
      <stop offset="0%" stop-color="#ED3200"/>
      <stop offset="100%" stop-color="#F75516"/>
    </linearGradient>
  </defs>
  <g fill="none" fill-rule="nonzero">
    <path fill="url(#a)" d="M86 503L73 376l94 65"/>
    <path fill="#FEB012" d="M578 797l-29-58 48-52"/>
    <path fill="#F9BA65" d="M578 797l119-96-100-14"/>
    <path fill="url(#b)" d="M0 464l86 39-13-127-73 66"/>
    <path fill="url(#c)" d="M0 442l73-66-48-19-25 60"/>
    <path fill="#FFCC67" d="M0 417l25-60L9 180l-9 98"/>
    <path fill="#FEBB77" d="M761 769l60 28 177-16-98-9"/>
    <path fill="url(#d)" d="M382 797h2l-5-23-7-2"/>
    <path fill="url(#e)" d="M0 641l32-21L0 513"/>
    <path fill="url(#f)" d="M321 541h-23l36-60"/>
    <path fill="url(#g)" d="M302 715l-135-44 9-19"/>
    <path fill="url(#h)" d="M167 671L32 620l144 32"/>
    <path fill="url(#i)" d="M384 797h40l6-1-51-22"/>
    <path fill="#FFEEC0" d="M0 278l9-98L0 72"/>
    <path fill="#FFFCE8" d="M0 72l9 108 7-78L0 0"/>
    <path fill="#FDA90D" d="M549 739l48-52-128 9"/>
    <path fill="url(#j)" d="M86 503l81-62 41 78"/>
    <path fill="url(#k)" d="M302 715l-135-44 6 52"/>
    <path fill="url(#l)" d="M196 791l106-76-129 8"/>
    <path fill="#FFD590" d="M25 357L9 180l29 52"/>
    <path fill="url(#m)" d="M398 717l71-21-74-84"/>
    <path fill="url(#n)" d="M199 797h24l-27-6z"/>
    <path fill="url(#o)" d="M308 797h74l-10-25"/>
    <path fill="url(#p)" d="M279 797l24-83-108 77 28 6"/>
    <path fill="url(#q)" d="M298 541l-90-22v79"/>
    <path fill="url(#r)" d="M118 797h81l-3-6"/>
    <path fill="#E3B374" d="M469 696l128-9-45-62"/>
    <path fill="url(#s)" d="M176 652L32 620l48-90"/>
    <path fill="url(#t)" d="M176 652l32-54-128-68"/>
    <path fill="url(#u)" d="M0 513l32 107 48-90-80-60"/>
    <path fill="url(#v)" d="M208 598v-79L80 530"/>
    <path fill="url(#w)" d="M208 519L86 503l-6 27"/>
    <path fill="url(#x)" d="M0 470l80 60 6-27-86-39"/>
    <path fill="url(#y)" d="M549 739l-80-43 64 73"/>
    <path fill="url(#z)" d="M503 797h75l-45-28"/>
    <path fill="url(#A)" d="M430 796l39-100 64 73"/>
    <path fill="#FD7900" d="M578 797l-29-58-16 30"/>
    <path fill="url(#B)" d="M469 696l-74-84 3-6"/>
    <path fill="#FFF" d="M395 612l-26-55 29 49"/>
    <path fill="url(#C)" d="M411 582l-42-25 29 49"/>
    <path fill="url(#D)" d="M398 717l-96-2 6-63"/>
    <path fill="#E7A65E" d="M398 717l-3-105-87 40"/>
    <path fill="url(#E)" d="M302 715l-126-63h132"/>
    <path fill="url(#F)" d="M176 652l32-54 100 54"/>
    <path fill="url(#G)" d="M395 612l-26-55-61 95"/>
    <path fill="url(#H)" d="M208 598l90-57 10 111"/>
    <path fill="url(#I)" d="M369 557l-48-16-13 111"/>
    <path fill="url(#J)" d="M321 541h-23l10 111"/>
    <path fill="#FECB77" d="M578 797l119-96 64 68"/>
    <path fill="url(#K)" d="M167 671L32 620 6 736"/>
    <path fill="url(#L)" d="M0 710l6 26 26-116-32 21"/>
    <path fill="url(#M)" d="M0 765l6-29-6-26"/>
    <path fill="url(#N)" d="M0 797h63L6 736l-6 29"/>
    <path fill="url(#O)" d="M469 696l83-71-125-46"/>
    <path fill="url(#P)" d="M469 696l-71-90 29-27"/>
    <path fill="url(#Q)" d="M398 606l13-24 16-3"/>
    <path fill="url(#R)" d="M411 582l-42-25 58 22"/>
    <path fill="url(#S)" d="M398 717l-96-2 51 27"/>
    <path fill="url(#T)" d="M279 797h11l63-55-51-27"/>
    <path fill="url(#U)" d="M290 797h18l64-25-19-30"/>
    <path fill="#FFA934" d="M764 797l-3-28-183 28"/>
    <path fill="url(#V)" d="M208 519l-41-78 51 32"/>
    <path fill="url(#W)" d="M298 541l-90-22 39-54"/>
    <path fill="url(#X)" d="M298 541l36-60-87-16"/>
    <path fill="url(#Y)" d="M208 519l10-46 29-8"/>
    <path fill="url(#Z)" d="M218 473l-51-32 80 24"/>
    <path fill="url(#aa)" d="M353 742l45-25v41"/>
    <path fill="url(#ab)" d="M398 717l71-21-71 62"/>
    <path fill="url(#ac)" d="M430 796l39-100-71 62"/>
    <path fill="url(#ad)" d="M430 796l-51-22 19-16"/>
    <path fill="url(#ae)" d="M379 774l-7-2 26-14"/>
    <path fill="url(#af)" d="M372 772l-19-30 45 16"/>
    <path fill="url(#ag)" d="M6 736l161-65-33 87"/>
    <path fill="url(#ah)" d="M173 723l-6-52-33 87"/>
    <path fill="url(#ai)" d="M63 797h11l60-39L6 736"/>
    <path fill="url(#aj)" d="M74 797h44l78-6-62-33"/>
    <path fill="url(#ak)" d="M196 791l-23-68-39 35"/>
    <path fill="#FDD09D" d="M897 772l-136-3-64-68"/>
    <path fill="#FAA000" d="M761 769l3 28h57"/>
    <path fill="#FFD087" d="M821 797l177-16 202 16"/>
    <path fill="url(#al)" d="M503 797l30-28-109 28"/>
  </g>
</svg>